<svg width="700" height="180" viewBox="0 0 700 180" fill="none" xmlns="http://www.w3.org/2000/svg">
  <g clip-path="url(#clip0_150_21)">
    <g opacity="0.5" filter="url(#filter0_f_150_21)">
      <path
        d="M40.665 127.203C40.314 115.737 40.314 103.803 40.314 90.114H48.504C66.756 90.114 74.712 96.666 74.712 108.834C74.712 120.651 66.405 127.203 50.142 127.203H40.665ZM50.142 51.504C64.416 51.504 70.968 56.301 70.968 67.65C70.968 79.584 63.597 85.434 47.685 85.434H40.314C40.314 73.734 40.314 62.502 40.665 51.504H50.142ZM18.084 46.707V50.802L30.252 52.089C30.603 63.321 30.603 74.787 30.603 86.019V92.454C30.603 103.92 30.603 115.269 30.252 126.501L18.084 127.788V132H52.482C75.648 132 85.125 120.651 85.125 108.834C85.125 98.187 77.871 89.763 60.789 87.54C74.946 84.498 80.796 76.425 80.796 67.299C80.796 55.014 71.085 46.707 53.301 46.707H18.084ZM114.001 71.511L112.363 70.341L95.5151 76.542V80.286L105.928 81.105C106.162 86.604 106.396 91.401 106.396 98.889V105.324C106.396 111.291 106.279 120.3 106.045 126.852L96.4511 128.256V132H126.286V128.256L115.522 126.735C115.405 120.183 115.288 111.291 115.288 105.324V94.677C118.213 86.604 121.957 81.222 127.456 77.595L129.094 78.999C131.434 80.988 133.657 82.392 136.582 82.392C141.145 82.392 143.134 79.467 143.134 74.436C141.847 71.862 137.986 70.224 134.242 70.224C126.871 70.224 119.383 76.542 115.171 86.838L114.001 71.511ZM185.059 118.662C177.571 124.629 174.178 126.735 169.264 126.735C162.946 126.735 158.5 123.576 158.5 116.556C158.5 111.876 160.606 106.962 171.955 102.633C175.114 101.346 180.262 99.708 185.059 98.421V118.662ZM204.247 125.097C202.492 126.969 201.088 127.905 198.982 127.905C195.823 127.905 193.951 125.799 193.951 119.013V91.284C193.951 76.074 187.633 70.224 174.646 70.224C162.244 70.224 153.118 75.957 150.661 85.551C150.895 88.359 152.884 89.997 155.809 89.997C158.851 89.997 160.606 88.242 161.542 84.849L164.116 76.191C167.158 75.138 169.849 74.904 172.306 74.904C181.198 74.904 185.059 78.063 185.059 90.933V94.677C179.677 95.847 174.061 97.485 169.498 98.889C153.586 104.622 149.023 110.355 149.023 118.194C149.023 128.256 156.511 133.638 165.871 133.638C173.476 133.638 178.156 130.245 185.293 122.991C186.346 129.426 190.09 133.404 196.057 133.404C200.152 133.404 203.428 131.766 206.236 127.554L204.247 125.097ZM226.683 54.429C230.895 54.429 234.171 51.504 234.171 47.292C234.171 42.963 230.895 40.155 226.683 40.155C222.588 40.155 219.312 42.963 219.312 47.292C219.312 51.504 222.588 54.429 226.683 54.429ZM231.597 126.735C231.48 120.3 231.363 111.291 231.363 105.324V88.125L231.714 71.511L229.959 70.341L211.59 76.425V80.286L222.354 80.988C222.588 86.838 222.588 91.518 222.588 98.772V105.324C222.588 111.291 222.471 120.3 222.354 126.735L212.292 128.256V132H240.84V128.256L231.597 126.735ZM309.308 126.735C309.074 120.3 308.957 111.408 308.957 105.324V93.156C308.957 76.659 303.575 70.224 292.928 70.224C285.089 70.224 276.314 74.787 269.528 82.275L268.592 71.511L266.954 70.341L250.106 76.542V80.286L260.519 81.105C260.753 86.604 260.987 91.518 260.987 98.889V105.324C260.987 111.291 260.87 120.3 260.636 126.852L250.808 128.256V132H279.356V128.256L270.113 126.735C269.996 120.3 269.879 111.291 269.879 105.324V86.838C277.367 79.935 283.334 77.478 289.067 77.478C296.555 77.478 300.065 81.456 300.065 93.624V105.324C300.065 111.408 299.948 120.417 299.831 126.852L289.886 128.256V132H318.551V128.256L309.308 126.735ZM417.535 51.855L420.811 68.937H426.661L425.491 46.707H356.227L355.291 68.937H361.141L364.417 51.855H385.828C386.062 63.087 386.062 74.67 386.062 86.136V92.571C386.062 104.037 386.062 115.386 385.828 126.501L372.256 127.788V132H409.579V127.788L396.124 126.501C395.773 115.269 395.773 103.803 395.773 92.571V86.136C395.773 74.436 395.773 62.97 396.124 51.855H417.535ZM486.453 126.852V90.114L486.921 72.33L485.634 71.043L468.318 72.564V76.308L477.912 77.946L477.678 116.79C471.711 122.991 465.276 126.15 458.607 126.15C451.002 126.15 447.258 121.938 447.258 109.77V90.114L447.843 72.33L446.673 71.043L429.123 72.564V76.308L438.834 77.946L438.483 110.472C438.366 127.671 444.567 133.638 455.097 133.638C463.287 133.638 471.36 129.426 477.912 121.353L478.848 133.053L495.462 132V128.256L486.453 126.852ZM523.387 71.511L521.749 70.341L504.901 76.542V80.286L515.314 81.105C515.548 86.604 515.782 91.401 515.782 98.889V105.324C515.782 111.291 515.665 120.3 515.431 126.852L505.837 128.256V132H535.672V128.256L524.908 126.735C524.791 120.183 524.674 111.291 524.674 105.324V94.677C527.599 86.604 531.343 81.222 536.842 77.595L538.48 78.999C540.82 80.988 543.043 82.392 545.968 82.392C550.531 82.392 552.52 79.467 552.52 74.436C551.233 71.862 547.372 70.224 543.628 70.224C536.257 70.224 528.769 76.542 524.557 86.838L523.387 71.511ZM593.666 124.863C590.39 127.203 587.816 128.256 584.774 128.256C579.977 128.256 577.169 125.331 577.169 118.428V77.244H594.836V71.862H577.286L577.988 54.195H571.553L568.745 71.511L556.811 72.915V77.244H568.277V108.717C568.277 113.28 568.16 115.971 568.16 118.896C568.16 128.841 573.074 133.638 581.966 133.638C587.933 133.638 592.73 131.532 596.006 127.788L593.666 124.863ZM620.637 126.735C620.52 119.832 620.403 112.227 620.403 105.324V56.652L620.754 38.634L618.999 37.581L600.864 42.495V46.122L611.511 47.058V105.324C611.511 112.227 611.394 119.832 611.277 126.735L600.396 128.256V132H631.167V128.256L620.637 126.735ZM650.38 96.783C651.784 81.924 660.325 74.904 668.866 74.904C677.875 74.904 684.076 82.275 684.076 90.465C684.076 94.209 682.906 96.783 677.758 96.783H650.38ZM692.032 101.346C692.617 99.591 692.851 97.134 692.851 94.092C692.851 79.467 683.023 70.224 669.451 70.224C654.007 70.224 640.786 82.743 640.786 102.282C640.786 122.289 652.603 133.638 668.983 133.638C679.864 133.638 687.937 128.256 692.734 119.832L690.277 117.96C685.714 123.459 680.215 127.086 671.908 127.086C659.506 127.086 650.38 118.545 650.263 101.229L692.032 101.346Z"
        fill="white" />
    </g>
  </g>
  <defs>
    <filter id="filter0_f_150_21" x="8.084" y="27.5811" width="694.767" height="116.057" filterUnits="userSpaceOnUse"
      color-interpolation-filters="sRGB">
      <feFlood flood-opacity="0" result="BackgroundImageFix" />
      <feBlend mode="normal" in="SourceGraphic" in2="BackgroundImageFix" result="shape" />
      <feGaussianBlur stdDeviation="5" result="effect1_foregroundBlur_150_21" />
    </filter>
    <clipPath id="clip0_150_21">
      <rect width="700" height="180" fill="white" />
    </clipPath>
  </defs>
</svg>