<svg width="682" height="168" viewBox="0 0 682 168" fill="none" xmlns="http://www.w3.org/2000/svg">
  <g>
    <path id="title-stroke"
      d="M-1 139.5H33.5V136H8V131H15.5L20 126.5V62L15.5 57.5H8.5V51.5H49.5L56.5 53.5L64 57.5L68 62.5L70 69V79L67 84L63 88L60 90L55.5 91.5L52.5 86.5L56 82.5L57.5 78.5V67.5L55 62L51.5 60L47 58.5H31.5V88.5H47.5L51 87L54.5 92L51 95.5C49.1667 95.1667 45.4 94.5 45 94.5C44.6 94.5 35.8333 94.5 31.5 94.5V130.5H45.5L51.5 129.5L57.5 126.5L60 122L60.5 119.5V104.5L58.5 100L56 98L52 96.5L56.5 93H60.5L64 95L67.5 98L71 103L72.5 106.5L73.5 110.5V118.5L72 123.5L68 128L63.5 132C62.1667 132.577 59.4 133.785 59 134C58.5 134.268 53.5 135.5 53 135.5C52.6 135.5 49.1667 135.833 47.5 136H35V139.5H100V136H84.5V131H90.5L93.5 129L95 126.5V83.5L93.5 80.5L90.5 78H84.5V73H102.5C103 75.5 104 80.6 104 81C104 81.4 104.667 83.8333 105 85L107.5 78.5L111 75L116 73L120 72H125L130.5 74.5L133.5 79V84L132 86.5L129 88.5H123.5L122.5 82.5L119.5 79.5H114.5L110.5 83.5C109.833 84.3333 108.5 86.1 108.5 86.5C108.5 86.9 107.167 91 106.5 93L105.5 96.5V126.5L107.5 129.5L109.5 130.5L110.5 131H118.5V136H101.5V139.5H156.5V137H153L148 135.5L144.5 132.5L141.5 128.5L139.5 123.5V112.5L143 107L148.5 103L154.5 100.5L163 99.5H170.5L175.5 99V84C174.833 82.6667 173.4 80 173 80C172.6 80 170.5 78.6667 169.5 78H160.5L157 80.5L154.5 84.5V91H148.5L146.5 88.5L144.5 85.5V80L148 76L153 73.5L158.5 72.5L163.5 72H169.5L176 73.5L180 76L183 79.5C184 80.8333 186 83.6 186 84C186 84.4 186.333 88.8333 186.5 91V125.5L187.5 129L190 131H194.5V136H178.5L176.5 125L174.5 120.5L175.5 118.5V104H165L158.5 105L153 109.5L150.5 114.5C150.5 117.5 150.5 123.6 150.5 124C150.5 124.4 152.833 126.833 154 128L156.5 130H164.5L169.5 128L172 125.5L173.5 122.5L175 126L173 129.5L169 133L164.5 136L159.5 137H158.5V139.5H218V136H202V131H209L212 129.5L213.5 126V83L211.5 79.5L208 78H203.5V73H217.5V61H215.5L213.5 59L211.5 56V51.5L213 48.5L215.5 47H221L223.5 49L224.5 51.5V57.5L222 59.5L220 61H218.5V73H224V125L225.5 128L228.5 130.5L230.5 131H235.5V136H219.5V139.5H254.5V136H240V131H246.5L250 129L251 126V83L248.746 79.5L245.5 78H240V73H259.5L260.5 78.5V83L263.5 78.5L268 75L274.5 72H285.5L291.5 75L296.5 80.5L299 86.5V127L301.5 129.5L305 131H308.5V136H288.5V90L286.5 84L282.5 80.5L279.5 79H272L267.5 81L264.5 84.5L262 90L261.5 93V126.5L263 129.5L268 131H271.5V136H256V139.5H377V136H360.5V131H368L371 129L372.5 126V57.5H359.5L356 58.5L353 62L351.5 65.5V73H345.5V52H411.5V73H406.5L405.5 65L403.5 60.5L401 58H384.5V126L386.5 129.5L388.5 131H396.5V136H378.5V139.5H446.5V137H443.5L438.5 135.5L433.5 132.5L430.5 128L428.5 123.5L427.5 120.5V83.1857L425.5 80L423 78H417.5V73H438V117.672L439 123.5L442.5 127.5L446.5 129.5H455L459 127.5L461.5 124L464 119.5L465 117L466 113V84.5L465 81L462 79L459.5 78H455.5V73H476V125L477 129L480 130.5L484.5 131H485.5V136H468L466.5 126H464.5L463 130L460 133L456 135L452 136.5L448 137V139.5H507.5V136H492.5V131H499L502 129L503 126V82.5L501 79.5L498 78H492.5V73H510.5L512.5 85H513.5L516.5 78.5L519.5 75.5L523.5 73L530 72H532L538.5 74L541 77V84L539.5 86.5L533.5 89H531.5L531 85L529.5 81L526.5 79H522.5L519 82L516.5 86L515.5 90L514.5 94.5L513.5 98V126L515 129L518.5 131H526V136H509V139.5H580.959L579 136L574 137H568.5L563 135L558.5 132L555.5 127L555 121V79.5H545.5V75L551 74.5L555 72L559 66L560.5 59H565.5V72.885H581V79.5H565.5V123.5L568 128.5L571.5 130.5H582V136H587V131L596 130L598 126V56.5L596 54L594 52H586.5V47H609V126.378L610.5 129.5L613.5 130.5H619.5V136H588.5V139.5H658.5L657 137H651L644.5 135L637 131L630.5 122.5L628 111V97.5L629.5 89L632 83.5L636 79L641 75L644.5 73.5L651.5 72H656.5L664 74L668.5 77L672 80L673.5 82.5L665 86L660.5 80.5L655 78H650L645.5 80.5L642.5 84.5L640.5 89.5L639 93.5L638.5 99H666.5L665.5 89L665 87L674.5 83.5L677.5 95.5V105H638.5V111.5L639.5 116.5L641.5 121.5L644.5 125.5L649 128.5L652.5 129.5H660L665 128.5L669 126.5L673 122.5H674.5L675 126L673.5 130.5L669 133.5L663.5 135.5L658.5 136.5L660.5 139.5H681.5"
      stroke="white" />
  </g>
</svg>