<svg width="675" height="97" viewBox="0 0 675 97" style="color: white;" xmlns="http://www.w3.org/2000/svg">
  <path
    d="M22.665 90.2031C22.314 78.7371 22.314 66.8031 22.314 53.1141H30.504C48.756 53.1141 56.712 59.6661 56.712 71.8341C56.712 83.6511 48.405 90.2031 32.142 90.2031H22.665ZM32.142 14.5041C46.416 14.5041 52.968 19.3011 52.968 30.6501C52.968 42.5841 45.597 48.4341 29.685 48.4341H22.314C22.314 36.7341 22.314 25.5021 22.665 14.5041H32.142ZM0.0839996 9.70706V13.8021L12.252 15.0891C12.603 26.3211 12.603 37.7871 12.603 49.0191V55.4541C12.603 66.9201 12.603 78.2691 12.252 89.5011L0.0839996 90.7881V95.0001H34.482C57.648 95.0001 67.125 83.6511 67.125 71.8341C67.125 61.1871 59.871 52.7631 42.789 50.5401C56.946 47.4981 62.796 39.4251 62.796 30.2991C62.796 18.0141 53.085 9.70706 35.301 9.70706H0.0839996Z"
    fill="currentColor" />
  <path
    d="M96.0012 34.5111L94.3632 33.3411L77.5151 39.5421V43.2861L87.9281 44.1051C88.1621 49.6041 88.3961 54.4011 88.3961 61.8891V68.3241C88.3961 74.2911 88.2792 83.3001 88.0452 89.8521L78.4511 91.2561V95.0001H108.286V91.2561L97.5221 89.7351C97.4051 83.1831 97.2881 74.2911 97.2881 68.3241V57.6771C100.213 49.6041 103.957 44.2221 109.456 40.5951L111.094 41.9991C113.434 43.9881 115.657 45.3921 118.582 45.3921C123.145 45.3921 125.134 42.4671 125.134 37.4361C123.847 34.8621 119.986 33.2241 116.242 33.2241C108.871 33.2241 101.383 39.5421 97.1712 49.8381L96.0012 34.5111Z"
    fill="currentColor" />
  <path
    d="M167.059 81.6621C159.571 87.6291 156.178 89.7351 151.264 89.7351C144.946 89.7351 140.5 86.5761 140.5 79.5561C140.5 74.8761 142.606 69.9621 153.955 65.6331C157.114 64.3461 162.262 62.7081 167.059 61.4211V81.6621ZM186.247 88.0971C184.492 89.9691 183.088 90.9051 180.982 90.9051C177.823 90.9051 175.951 88.7991 175.951 82.0131V54.2841C175.951 39.0741 169.633 33.2241 156.646 33.2241C144.244 33.2241 135.118 38.9571 132.661 48.5511C132.895 51.3591 134.884 52.9971 137.809 52.9971C140.851 52.9971 142.606 51.2421 143.542 47.8491L146.116 39.1911C149.158 38.1381 151.849 37.9041 154.306 37.9041C163.198 37.9041 167.059 41.0631 167.059 53.9331V57.6771C161.677 58.8471 156.061 60.4851 151.498 61.8891C135.586 67.6221 131.023 73.3551 131.023 81.1941C131.023 91.2561 138.511 96.6381 147.871 96.6381C155.476 96.6381 160.156 93.2451 167.293 85.9911C168.346 92.4261 172.09 96.4041 178.057 96.4041C182.152 96.4041 185.428 94.7661 188.236 90.5541L186.247 88.0971Z"
    fill="currentColor" />
  <path
    d="M208.683 17.4291C212.895 17.4291 216.171 14.5041 216.171 10.2921C216.171 5.96306 212.895 3.15506 208.683 3.15506C204.588 3.15506 201.312 5.96306 201.312 10.2921C201.312 14.5041 204.588 17.4291 208.683 17.4291ZM213.597 89.7351C213.48 83.3001 213.363 74.2911 213.363 68.3241V51.1251L213.714 34.5111L211.959 33.3411L193.59 39.4251V43.2861L204.354 43.9881C204.588 49.8381 204.588 54.5181 204.588 61.7721V68.3241C204.588 74.2911 204.471 83.3001 204.354 89.7351L194.292 91.2561V95.0001H222.84V91.2561L213.597 89.7351Z"
    fill="currentColor" />
  <path
    d="M291.308 89.7351C291.074 83.3001 290.957 74.4081 290.957 68.3241V56.1561C290.957 39.6591 285.575 33.2241 274.928 33.2241C267.089 33.2241 258.314 37.7871 251.528 45.2751L250.592 34.5111L248.954 33.3411L232.106 39.5421V43.2861L242.519 44.1051C242.753 49.6041 242.987 54.5181 242.987 61.8891V68.3241C242.987 74.2911 242.87 83.3001 242.636 89.8521L232.808 91.2561V95.0001H261.356V91.2561L252.113 89.7351C251.996 83.3001 251.879 74.2911 251.879 68.3241V49.8381C259.367 42.9351 265.334 40.4781 271.067 40.4781C278.555 40.4781 282.065 44.4561 282.065 56.6241V68.3241C282.065 74.4081 281.948 83.4171 281.831 89.8521L271.886 91.2561V95.0001H300.551V91.2561L291.308 89.7351Z"
    fill="currentColor" />
  <path
    d="M399.535 14.8551L402.811 31.9371H408.661L407.491 9.70706H338.227L337.291 31.9371H343.141L346.417 14.8551H367.828C368.062 26.0871 368.062 37.6701 368.062 49.1361V55.5711C368.062 67.0371 368.062 78.3861 367.828 89.5011L354.256 90.7881V95.0001H391.579V90.7881L378.124 89.5011C377.773 78.2691 377.773 66.8031 377.773 55.5711V49.1361C377.773 37.4361 377.773 25.9701 378.124 14.8551H399.535Z"
    fill="currentColor" />
  <path
    d="M468.453 89.8521V53.1141L468.921 35.3301L467.634 34.0431L450.318 35.5641V39.3081L459.912 40.9461L459.678 79.7901C453.711 85.9911 447.276 89.1501 440.607 89.1501C433.002 89.1501 429.258 84.9381 429.258 72.7701V53.1141L429.843 35.3301L428.673 34.0431L411.123 35.5641V39.3081L420.834 40.9461L420.483 73.4721C420.366 90.6711 426.567 96.6381 437.097 96.6381C445.287 96.6381 453.36 92.4261 459.912 84.3531L460.848 96.0531L477.462 95.0001V91.2561L468.453 89.8521Z"
    fill="currentColor" />
  <path
    d="M505.387 34.5111L503.749 33.3411L486.901 39.5421V43.2861L497.314 44.1051C497.548 49.6041 497.782 54.4011 497.782 61.8891V68.3241C497.782 74.2911 497.665 83.3001 497.431 89.8521L487.837 91.2561V95.0001H517.672V91.2561L506.908 89.7351C506.791 83.1831 506.674 74.2911 506.674 68.3241V57.6771C509.599 49.6041 513.343 44.2221 518.842 40.5951L520.48 41.9991C522.82 43.9881 525.043 45.3921 527.968 45.3921C532.531 45.3921 534.52 42.4671 534.52 37.4361C533.233 34.8621 529.372 33.2241 525.628 33.2241C518.257 33.2241 510.769 39.5421 506.557 49.8381L505.387 34.5111Z"
    fill="currentColor" />
  <path
    d="M575.666 87.8631C572.39 90.2031 569.816 91.2561 566.774 91.2561C561.977 91.2561 559.169 88.3311 559.169 81.4281V40.2441H576.836V34.8621H559.286L559.988 17.1951H553.553L550.745 34.5111L538.811 35.9151V40.2441H550.277V71.7171C550.277 76.2801 550.16 78.9711 550.16 81.8961C550.16 91.8411 555.074 96.6381 563.966 96.6381C569.933 96.6381 574.73 94.5321 578.006 90.7881L575.666 87.8631Z"
    fill="currentColor" />
  <path
    d="M602.637 89.7351C602.52 82.8321 602.403 75.2271 602.403 68.3241V19.6521L602.754 1.63406L600.999 0.581055L582.864 5.49505V9.12206L593.511 10.0581V68.3241C593.511 75.2271 593.394 82.8321 593.277 89.7351L582.396 91.2561V95.0001H613.167V91.2561L602.637 89.7351Z"
    fill="currentColor" />
  <path
    d="M632.38 59.7831C633.784 44.9241 642.325 37.9041 650.866 37.9041C659.875 37.9041 666.076 45.2751 666.076 53.4651C666.076 57.2091 664.906 59.7831 659.758 59.7831H632.38ZM674.032 64.3461C674.617 62.5911 674.851 60.1341 674.851 57.0921C674.851 42.4671 665.023 33.2241 651.451 33.2241C636.007 33.2241 622.786 45.7431 622.786 65.2821C622.786 85.2891 634.603 96.6381 650.983 96.6381C661.864 96.6381 669.937 91.2561 674.734 82.8321L672.277 80.9601C667.714 86.4591 662.215 90.0861 653.908 90.0861C641.506 90.0861 632.38 81.5451 632.263 64.2291L674.032 64.3461Z"
    fill="currentColor" />
</svg>